<svg width="1066" height="641" viewBox="0 0 1066 641" fill="none" xmlns="http://www.w3.org/2000/svg">
<line y1="-3.5" x2="635.335" y2="-3.5" transform="matrix(-0.00963589 -0.999954 0.999984 -0.00563452 838.361 636.743)" stroke="url(#paint0_linear_35_63)" stroke-opacity="0.12" stroke-width="7"/>
<line y1="-3.5" x2="635.335" y2="-3.5" transform="matrix(-0.00963589 -0.999954 0.999984 -0.00563452 553.203 638.144)" stroke="url(#paint1_linear_35_63)" stroke-opacity="0.12" stroke-width="7"/>
<line y1="-3.5" x2="635.335" y2="-3.5" transform="matrix(-0.00963589 -0.999954 0.999984 -0.00563452 234.392 639.711)" stroke="url(#paint2_linear_35_63)" stroke-opacity="0.12" stroke-width="7"/>
<line y1="-3.5" x2="1030.84" y2="-3.5" transform="matrix(-0.999988 0.00491369 -0.0020975 -0.999998 1063.36 132.091)" stroke="url(#paint3_linear_35_63)" stroke-opacity="0.12" stroke-width="7"/>
<line y1="-3.5" x2="1030.84" y2="-3.5" transform="matrix(-0.999988 0.00491369 -0.00208903 -0.999998 1049.54 307.68)" stroke="url(#paint4_linear_35_63)" stroke-opacity="0.12" stroke-width="7"/>
<line y1="-3.5" x2="1030.84" y2="-3.5" transform="matrix(-0.999988 0.00491369 -0.00208903 -0.999998 1034.1 480.991)" stroke="url(#paint5_linear_35_63)" stroke-opacity="0.12" stroke-width="7"/>
<defs>
<linearGradient id="paint0_linear_35_63" x1="740.131" y1="0.971705" x2="0.000377358" y2="0.244539" gradientUnits="userSpaceOnUse">
<stop stop-color="#FCFEFF" stop-opacity="0.85"/>
<stop offset="1" stop-opacity="0.93"/>
</linearGradient>
<linearGradient id="paint1_linear_35_63" x1="740.131" y1="0.971705" x2="0.000377358" y2="0.244539" gradientUnits="userSpaceOnUse">
<stop stop-color="#FCFEFF" stop-opacity="0.85"/>
<stop offset="1" stop-opacity="0.93"/>
</linearGradient>
<linearGradient id="paint2_linear_35_63" x1="740.131" y1="0.971705" x2="0.000377358" y2="0.244539" gradientUnits="userSpaceOnUse">
<stop stop-color="#FCFEFF" stop-opacity="0.85"/>
<stop offset="1" stop-opacity="0.93"/>
</linearGradient>
<linearGradient id="paint3_linear_35_63" x1="1200.87" y1="0.971705" x2="0.00250466" y2="-0.942589" gradientUnits="userSpaceOnUse">
<stop stop-color="#FCFEFF" stop-opacity="0.85"/>
<stop offset="1" stop-opacity="0.93"/>
</linearGradient>
<linearGradient id="paint4_linear_35_63" x1="1200.87" y1="0.971705" x2="0.00250466" y2="-0.942589" gradientUnits="userSpaceOnUse">
<stop stop-color="#FCFEFF" stop-opacity="0.85"/>
<stop offset="1" stop-opacity="0.93"/>
</linearGradient>
<linearGradient id="paint5_linear_35_63" x1="1200.87" y1="0.971705" x2="0.00250466" y2="-0.942589" gradientUnits="userSpaceOnUse">
<stop stop-color="#FCFEFF" stop-opacity="0.85"/>
<stop offset="1" stop-opacity="0.93"/>
</linearGradient>
</defs>
</svg>
